HIERARCHY
ROOT pelvis
{
  OFFSET 0 100 0
  CHANNELS 6 Xposition Yposition Zposition Zrotation Xrotation Yrotation
  JOINT pelvis_right_femur
  {
    OFFSET -10.78128 -3.44521 -0.5502486
    CHANNELS 3 Zrotation Xrotation Yrotation
    JOINT right_femur_tibia
    {
      OFFSET -0.8047443 -44.0398 -0.1307829
      CHANNELS 3 Zrotation Xrotation Yrotation
      JOINT right_tibia_foot
      {
        OFFSET 3.006224 -47.83518 -5
        CHANNELS 3 Zrotation Xrotation Yrotation
        End Site
        {
          OFFSET 0 -5 15
        }
      }
    }
  }
  JOINT pelvis_left_femur
  {
    OFFSET 10.78128 -3.44521 -0.5502486
    CHANNELS 3 Zrotation Xrotation Yrotation
    JOINT left_femur_tibia
    {
      OFFSET 0.8047443 -44.0398 -0.1307829
      CHANNELS 3 Zrotation Xrotation Yrotation
      JOINT left_tibia_foot
      {
        OFFSET -4.370144 -48.10324 -4.275266
        CHANNELS 3 Zrotation Xrotation Yrotation
        End Site
        {
          OFFSET 0 -5 15
        }
      }
    }
  }
  JOINT pelvis_spine1
  {
    OFFSET 0 6.468898 -3.129235
    CHANNELS 3 Zrotation Xrotation Yrotation
    JOINT spine1
    {
      OFFSET 0 23.15396 4.99043
      CHANNELS 3 Zrotation Xrotation Yrotation
      JOINT spine2
      {
        OFFSET 0 20.79997 -5.064912
        CHANNELS 3 Zrotation Xrotation Yrotation
        JOINT neck
        {
          OFFSET 0 14.38658 9.616178
          CHANNELS 3 Zrotation Xrotation Yrotation
          End Site
          {
            OFFSET 0 20 0
          }
        }
      }
      JOINT right_manubrium
      {
        OFFSET -5.722621 16.35077 3.967754
        CHANNELS 3 Zrotation Xrotation Yrotation
        JOINT right_clavicle
        {
          OFFSET -13.16364 1.694482 -4.693211
          CHANNELS 3 Zrotation Xrotation Yrotation
          JOINT right_humerus
          {
            OFFSET -28.5034 -0.3100689 -2.792744
            CHANNELS 3 Zrotation Xrotation Yrotation
            JOINT right_radius
            {
              OFFSET -25.15693 0.02248979 -1.271978
              CHANNELS 3 Zrotation Xrotation Yrotation
              End Site
              {
                OFFSET -15 0 0
              }
            }
          }
        }
      }
      JOINT left_manubrium
      {
        OFFSET 5.722621 16.35077 3.967754
        CHANNELS 3 Zrotation Xrotation Yrotation
        JOINT left_clavicle
        {
          OFFSET 13.16364 1.694482 -4.693211
          CHANNELS 3 Zrotation Xrotation Yrotation
          JOINT left_humerus
          {
            OFFSET 29.39168 -1.063119 -2.237045
            CHANNELS 3 Zrotation Xrotation Yrotation
            JOINT left_radius
            {
              OFFSET 24.59957 -0.9528479 0.9047498
              CHANNELS 3 Zrotation Xrotation Yrotation
              End Site
              {
                OFFSET 15 -0 -0
              }
            }
          }
        }
      }
    }
  }
}
MOTION
Frames: 13
Frame Time: 0.0416666666667
-2178.027 111.5621 632.5468 -7.198327 8.440502 -145.3359 0.2734815 -9.150133 -9.133458 -0 20.18588 -0 -13.50966 9.752261 2.475541 -4.274835 5.20283 -11.20584 -0 17.20814 -0 -2.018972 -15.07449 14.91436 -0.2516819 0.1762556 2.273647 -2.524118 11.231 -2.448119 3.17366 26.04505 5.447484 3.443278 -16.94213 7.579552 -3.805415 -18.40556 10.52721 94.17979 14.46427 -13.91275 -0 0 7.363817 -29.23875 9.282311 14.99893 7.585202 -23.16173 -8.696729 -87.20404 17.07267 11.91788 0 0 -18.10421 11.29787 20.79679 -0.5490844
-2181.625 111.3753 627.5681 -6.906108 8.032179 -145.2092 0.6858255 -11.55278 -9.721354 -0 15.27766 -0 -13.10197 9.400456 2.15424 -4.276283 6.307552 -10.43493 -0 18.64773 -0 -1.620857 -15.56569 14.11148 -0.05821942 -0.2321539 2.459254 -2.30429 11.56338 -3.034903 3.090773 25.72762 5.256602 3.147224 -17.35231 7.425477 -4.451778 -18.73378 10.60363 95.15687 13.65389 -15.35911 -0 0 6.696396 -29.42353 9.79514 15.07713 7.603277 -24.21416 -8.890291 -86.23084 16.83325 11.06821 0 0 -21.85303 11.21273 20.82436 -0.1871216
-2185.229 111.1059 622.4362 -6.662901 7.801224 -145.1628 1.345433 -12.89473 -9.904524 -0 11.04759 -0 -12.70248 9.111848 1.668388 -4.212649 6.902388 -9.595835 -0 21.03999 -0 -1.304752 -15.661 13.53344 0.190612 -0.7171124 2.695799 -2.103558 11.98502 -3.59118 3.050321 25.41479 4.970486 2.753173 -17.77538 7.271674 -5.200887 -19.19117 10.65817 96.18524 12.59893 -16.65596 -0 0 6.17281 -29.62467 10.32006 15.25142 7.444458 -25.09272 -9.052727 -85.55848 16.87812 10.75024 0 0 -25.08073 10.57792 20.8576 0.8577962
-2188.818 110.855 617.159 -6.532481 7.869074 -145.2142 2.255509 -12.9504 -9.598136 -0 8.009892 -0 -12.34563 8.718571 0.9810314 -4.030905 6.940115 -8.811413 -0 24.32542 -0 -1.091697 -15.27189 13.31725 0.4989896 -1.218147 2.935499 -1.943692 12.46179 -4.052057 3.076257 25.16682 4.60241 2.283199 -18.11364 7.153625 -5.979005 -19.72138 10.6886 97.15643 11.35508 -17.61781 -0 0 5.880257 -29.82534 10.87752 15.47906 7.110183 -25.67157 -9.190894 -85.30446 17.20822 11.00021 0 0 -27.27307 9.474905 20.9557 2.425387
-2192.357 110.7149 611.7748 -6.537513 8.248311 -145.3908 3.328883 -11.68193 -8.854134 -0 6.26548 -0 -12.04401 8.06751 0.1443968 -3.698503 6.308809 -8.18537 -0 28.21454 -0 -0.9558089 -14.39708 13.51408 0.8512488 -1.676847 3.183374 -1.854681 12.96941 -4.363715 3.179504 24.985 4.173012 1.786451 -18.31318 7.08267 -6.696679 -20.31386 10.69993 97.94814 10.10759 -18.099 -0 0 5.971465 -30.02772 11.51717 15.74584 6.644404 -25.88159 -9.302328 -85.5145 17.69822 11.83122 0 0 -28.19412 8.090906 21.1189 4.246339
-2195.812 110.7384 606.3487 -6.647832 8.851452 -145.718 4.413168 -9.243364 -7.834726 -0 5.593238 -0 -11.79172 7.083133 -0.7169254 -3.21105 4.885087 -7.773289 -0 32.12932 -0 -0.8600653 -13.14309 14.06097 1.217166 -2.047573 3.476567 -1.85778 13.48788 -4.497216 3.347665 24.82433 3.711171 1.315377 -18.39032 7.048434 -7.281228 -21.01176 10.70186 98.46184 9.064604 -18.0288 -0 0 6.609023 -30.24689 12.27102 16.08174 6.108951 -25.72243 -9.376887 -86.16842 18.19451 13.26177 0 0 -27.90991 6.60505 21.31171 6.101631
-2199.162 110.9169 600.9589 -6.787344 9.534968 -146.2061 5.347136 -5.937627 -6.739155 -0 5.623877 -0 -11.56282 5.755724 -1.455903 -2.588414 2.638336 -7.592738 -0 35.22831 -0 -0.7976338 -11.71287 14.81035 1.562933 -2.299851 3.840526 -1.954095 13.97137 -4.443858 3.553658 24.63462 3.253482 0.900601 -18.41277 7.045738 -7.695024 -21.86662 10.69479 98.63245 8.373044 -17.39501 -0 0 7.889796 -30.49845 13.13335 16.55242 5.566164 -25.22706 -9.387562 -87.20336 18.60811 15.28754 0 0 -26.66597 5.119601 21.50147 7.896951
-2202.414 111.1797 595.673 -6.853648 10.14453 -146.8457 6.011449 -2.143412 -5.725954 -0 6.001945 -0 -11.31718 4.089535 -1.953757 -1.867269 -0.2874244 -7.648366 -0 36.62254 -0 -0.798679 -10.34339 15.59346 1.862035 -2.421182 4.256367 -2.123008 14.33308 -4.209394 3.772009 24.39191 2.838318 0.541757 -18.45443 7.095958 -7.922552 -22.87425 10.66003 98.41558 8.125913 -16.21831 -0 0 9.792488 -30.78006 14.07556 17.22772 5.070079 -24.41649 -9.277784 -88.52183 18.92835 17.81386 0 0 -24.73567 3.682237 21.6702 9.603715
-2205.609 111.4223 590.526 -6.752612 10.55036 -147.6096 6.344121 1.772215 -4.870394 -0 6.490536 -0 -11.02339 2.073941 -2.1466 -1.100231 -3.581468 -7.947772 -0 35.75843 -0 -0.8964661 -9.213577 16.28378 2.097143 -2.418523 4.664041 -2.329244 14.46899 -3.814454 3.987427 24.10612 2.50077 0.2248391 -18.55444 7.241841 -7.939773 -23.93713 10.56686 97.76858 8.422616 -14.54914 -0 0 12.1681 -31.05743 15.0677 18.13109 4.661865 -23.29077 -8.969344 -89.98551 19.16559 20.60763 0 0 -22.31642 2.378723 21.80683 11.11716
-2208.809 111.5466 585.513 -6.446372 10.67959 -148.4574 6.326738 5.507481 -4.180488 -0 6.990957 -0 -10.68652 -0.2630949 -2.028049 -0.3637647 -6.852149 -8.493645 -0 32.73635 -0 -1.089838 -8.394534 16.83524 2.250261 -2.3112 4.993576 -2.535828 14.30498 -3.294376 4.192493 23.81914 2.273113 -0.04482302 -18.69787 7.518722 -7.709865 -24.87626 10.39235 96.66222 9.363701 -12.48764 -0 0 14.75013 -31.27463 16.06694 19.19121 4.37199 -21.87464 -8.407155 -91.41866 19.30045 23.30637 0 0 -19.51558 1.39695 21.91207 12.17671
-2212.072 111.493 580.5968 -5.986148 10.54665 -149.3396 5.984617 8.828155 -3.651937 -0 7.491752 -0 -10.35833 -2.736569 -1.646249 0.2420267 -9.728483 -9.257121 -0 28.33564 -0 -1.345201 -7.874466 17.28736 2.29914 -2.121572 5.194902 -2.717681 13.83683 -2.694774 4.382354 23.6032 2.184585 -0.2268756 -18.82505 7.92479 -7.231945 -25.49194 10.13844 95.15032 10.92532 -10.21044 -0 0 17.16807 -31.39515 16.97703 20.24033 4.226446 -20.27993 -7.619547 -92.65085 19.30649 25.50289 0 0 -16.42925 0.9537605 22.0157 12.4868
-2215.422 111.2514 575.7249 -5.492011 10.25361 -150.2098 5.408649 11.56337 -3.306199 -0 8.008716 -0 -10.1177 -4.958129 -1.095698 0.6210732 -11.9533 -10.15729 -0 23.70689 -0 -1.631827 -7.608818 17.72543 2.23426 -1.873714 5.254144 -2.86901 13.14471 -2.066941 4.551435 23.53917 2.250641 -0.2688138 -18.87265 8.410319 -6.595734 -25.65801 9.835164 93.44013 12.84509 -7.977086 -0 0 19.02442 -31.43627 17.63989 21.08407 4.243341 -18.71268 -6.738929 -93.59201 19.2119 26.90647 0 0 -13.24841 1.119218 22.16138 11.97316
-2218.85 110.8548 570.8459 -5.085905 9.935739 -151.0368 4.737631 13.62709 -3.171111 -0 8.570243 -0 -10.02668 -6.493873 -0.4862887 0.7252606 -13.44321 -11.07894 -0 19.85788 -0 -1.944 -7.550379 18.20454 2.074439 -1.594275 5.1968 -3.000648 12.3638 -1.460375 4.694659 23.66794 2.454071 -0.1492124 -18.81697 8.89562 -5.957982 -25.3899 9.527082 91.84312 14.70904 -6.067421 -0 0 20.06728 -31.4483 17.90788 21.59934 4.416127 -17.38627 -5.940832 -94.26006 19.10555 27.47727 0 0 -10.26861 1.732965 22.36122 10.89114
